<?xml version="1.0" standalone="no"?>
<!DOCTYPE svg PUBLIC "-//W3C//DTD SVG 20010904//EN"
 "http://www.w3.org/TR/2001/REC-SVG-20010904/DTD/svg10.dtd">
<svg version="1.0" xmlns="http://www.w3.org/2000/svg"
 width="300.000000pt" height="300.000000pt" viewBox="0 0 300.000000 300.000000"
 preserveAspectRatio="xMidYMid meet">
<metadata>
Created by potrace 1.14, written by Peter Selinger 2001-2017
</metadata>
<g transform="translate(0.000000,300.000000) scale(0.100000,-0.100000)"
fill="#000000" stroke="none">
<path d="M1714 2979 c-2 -3 6 -15 18 -25 50 -45 61 -123 27 -199 -25 -57 -28
-120 -6 -160 l15 -30 0 47 c0 74 31 127 109 185 55 41 63 53 51 83 -15 40 -69
89 -109 100 -40 11 -98 10 -105 -1z"/>
<path d="M2002 2898 c-13 -56 -43 -98 -89 -123 -90 -50 -138 -154 -109 -242 7
-20 3 -20 -81 13 -86 34 -207 67 -290 79 -23 3 -57 8 -75 11 -61 9 -262 6
-333 -5 -224 -35 -341 -90 -479 -225 -137 -133 -216 -178 -369 -207 -99 -18
-166 -92 -173 -190 -3 -46 0 -54 34 -91 20 -22 46 -44 58 -48 14 -6 25 -21 29
-40 9 -40 58 -96 106 -120 32 -17 37 -24 33 -46 -3 -14 -2 -35 1 -45 6 -17 9
-18 22 -7 9 7 24 27 35 43 l18 30 0 -67 c0 -38 4 -68 9 -68 6 0 30 27 55 59
44 57 48 60 104 67 74 9 214 10 272 1 229 -35 451 -167 578 -342 20 -27 39
-52 43 -55 34 -27 153 -360 128 -360 -5 0 -12 7 -15 15 -8 19 -102 65 -120 58
-8 -3 -24 -24 -36 -47 -22 -44 -85 -126 -96 -126 -4 0 -7 21 -6 48 0 26 -2 58
-7 72 -6 21 -10 18 -9 -5 2 -16 -76 -147 -92 -156 -23 -12 -88 4 -133 34 -62
41 -78 93 -51 171 17 49 11 72 -22 85 -92 37 -185 -1 -231 -94 -50 -100 -12
-261 85 -357 21 -22 31 -38 23 -38 -31 0 -89 -22 -84 -31 8 -12 60 -34 155
-66 129 -44 332 -40 454 8 130 51 243 131 318 224 63 78 122 193 146 285 l19
75 7 -42 c6 -35 8 -116 5 -188 -5 -92 -65 -258 -128 -349 -34 -50 -132 -150
-175 -179 -15 -11 -26 -21 -23 -23 9 -9 176 29 270 61 l98 34 -31 -39 c-91
-115 -234 -235 -370 -310 l-75 -41 60 6 c33 4 78 11 100 17 22 6 54 12 70 15
45 7 202 70 275 110 161 87 331 242 429 388 29 44 54 82 56 83 6 7 -25 -111
-46 -173 -26 -78 -95 -221 -125 -262 -13 -17 -24 -34 -24 -38 0 -15 102 67
181 147 159 159 278 373 325 585 9 41 18 73 19 71 9 -10 19 -120 19 -225 1
-68 3 -123 6 -123 8 0 82 124 118 195 32 66 87 215 96 261 2 16 7 40 11 54 19
81 25 286 12 410 -21 200 -114 450 -242 654 -53 85 -148 208 -166 214 -5 2 -9
-10 -9 -26 0 -43 -35 -149 -67 -204 -73 -121 -188 -208 -328 -245 -63 -16
-186 -19 -245 -5 l-35 9 60 12 c197 41 359 196 409 391 33 127 6 288 -69 405
-31 49 -149 165 -168 165 -5 0 -21 8 -35 18 -15 10 -38 23 -52 29 -25 10 -26
9 -38 -39z"/>
</g>
</svg>
